PathFileType	4	(X/Y/Z)	walk-thru1-5-TP.trc
DataRate	CameraRate	NumFrames	NumMarkers	Units	OrigDataRate	OrigDataStartFrame	OrigNumFrames
120.00	120.00	       4	60	mm	120.00	1	       498
Frame#	Time	Top.Head			Front.Head			Rear.Head			Jaw			C7			R.Clavicle			L.Clavicle			R.Shoulder			L.Shoulder			R.Scapula			L.Scapula			R.Scap.Inf			R.Biceps.Lateral			R.Elbow			R.Elbow.Medial			R.Forearm			R.Ulna			R.Radius			R.Wrist			R.Thumb.M1			R.Thumb.M2			R.Thumb.M3			R.Finger3.M1			R.Finger3.M2			R.Finger3.M3			L.Biceps.Lateral			L.Elbow			L.Elbow.Medial			L.Forearm			L.Ulna			L.Radius			L.Wrist			L.Thumb.M1			L.Thumb.M2			L.Thumb.M3			L.Finger3.M1			L.Finger3.M2			L.Finger3.M3			V.Sacral			R.ASIS			L.ASIS			R.Thigh			R.Thigh.Front			R.Knee			R.Knee.Medial			R.Shank			R.Ankle			R.Ankle.Medial			R.Heel			R.Toe			R.MedFoot			L.Thigh			L.Knee			L.Knee.Medial			L.Shank			L.Ankle			L.Ankle.Medial			L.Heel			L.Toe			L.MedFoot			V_mid_ASIS			V_R_Knee_JC			V_L_Knee_JC			V_R_Elbow_JC			V_L_Elbow_JC			V_R_Ankle_JC			V_L_Ankle_JC			V_R_Wrist_JC			V_L_Wrist_JC			V_R_ScaTrpz_1stMC_JC			V_R_1stMC_1stPP_JC			V_R_1stPP_1stDP_JC			V_R_LunCap_3rdMC_JC			V_R_3rdMC_3rdPP_JC			V_R_3rdPP_3rdMP_JC			V_R_3rdMP_3rdDP_JC			V_L_ScaTrpz_1stMC_JC			V_L_1stMC_1stPP_JC			V_L_1stPP_1stDP_JC			V_L_LunCap_3rdMC_JC			V_L_3rdMC_3rdPP_JC			V_L_3rdPP_3rdMP_JC			V_L_3rdMP_3rdPP_JC			V_ROOT_JC			V_R_Hip_JC			V_L_Hip_JC			V_R_GlenHum_JC			V_L_GlenHum_JC			V_ForeHead_Ctr			V_Vertex			V_Sagit_Lambdoid_Suture			V_R_FrontoTemp			V_L_FrontoTemporal			V_R_ParietalOccip			V_L_ParietalOcciptal			V_R_Temporal			V_L_Temporal			V_mid_FrontRearHead			V_mid_RLGlenHumCtrs			V_C7_vert			V_C1_vert			V_Mid_Hip			
		X1	Y1	Z1	X2	Y2	Z2	X3	Y3	Z3	X4	Y4	Z4	X5	Y5	Z5	X6	Y6	Z6	X7	Y7	Z7	X8	Y8	Z8	X9	Y9	Z9	X10	Y10	Z10	X11	Y11	Z11	X12	Y12	Z12	X13	Y13	Z13	X14	Y14	Z14	X15	Y15	Z15	X16	Y16	Z16	X17	Y17	Z17	X18	Y18	Z18	X19	Y19	Z19	X20	Y20	Z20	X21	Y21	Z21	X22	Y22	Z22	X23	Y23	Z23	X24	Y24	Z24	X25	Y25	Z25	X26	Y26	Z26	X27	Y27	Z27	X28	Y28	Z28	X29	Y29	Z29	X30	Y30	Z30	X31	Y31	Z31	X32	Y32	Z32	X33	Y33	Z33	X34	Y34	Z34	X35	Y35	Z35	X36	Y36	Z36	X37	Y37	Z37	X38	Y38	Z38	X39	Y39	Z39	X40	Y40	Z40	X41	Y41	Z41	X42	Y42	Z42	X43	Y43	Z43	X44	Y44	Z44	X45	Y45	Z45	X46	Y46	Z46	X47	Y47	Z47	X48	Y48	Z48	X49	Y49	Z49	X50	Y50	Z50	X51	Y51	Z51	X52	Y52	Z52	X53	Y53	Z53	X54	Y54	Z54	X55	Y55	Z55	X56	Y56	Z56	X57	Y57	Z57	X58	Y58	Z58	X59	Y59	Z59	X60	Y60	Z60	

1	0.000	1142.04456	-38.41607	1767.95093	1056.24683	-22.30445	1636.74536	1280.24756	-45.02791	1710.95398	1163.44348	-29.48924	1474.28101	1386.48389	-32.73061	1583.48291	1288.24988	84.39423	1501.85571	1286.47729	-159.60233	1489.63428	1337.58215	191.80110	1497.69177	1338.87878	-262.98520	1491.78503	1451.75745	65.56218	1494.89185	1457.97510	-125.15362	1489.83118	1482.16602	71.47400	1404.80908	1371.34351	228.38199	1359.52808	1428.16492	267.23691	1177.36267	1431.65515	169.91919	1165.44580	1329.12830	262.42398	1120.38281	1376.00952	269.89566	979.16382	1257.56689	263.67203	964.39716	1255.96594	306.69794	931.57678	1231.92529	257.07397	926.94598	1217.34314	221.48216	889.46667	1208.26270	212.06927	840.17133	1226.88489	304.99533	850.40289	1249.14636	239.29231	805.98444	1274.61755	199.52678	846.90637	1410.88879	-280.50708	1355.27795	1494.97461	-285.06259	1192.25500	1499.02686	-188.96663	1172.14758	1419.95288	-291.74509	1102.39258	1493.27100	-307.26263	1003.93231	1399.16211	-302.24982	940.16620	1432.11169	-339.20190	906.86334	1383.29517	-302.06412	882.69128	1366.39514	-274.35501	837.66962	1361.75342	-275.44162	787.86963	1417.06970	-347.04526	806.66400	1417.02612	-314.50491	749.60303	1415.73511	-253.84483	752.98108	1510.17896	-37.81753	1131.84143	1320.55469	155.25717	1063.98999	1318.38257	-198.13470	1080.03699	1348.97424	133.30560	685.12189	1281.83850	40.13066	585.33862	1330.53552	99.13432	525.63898	1341.14807	-11.79073	527.09814	1330.00159	50.19885	310.53632	1430.28430	72.01200	84.06813	1412.90698	-29.33831	107.48537	1491.49951	22.01603	49.60001	1258.88489	41.71273	39.72952	1319.43164	0.07887	78.52251	1257.42688	-208.53859	702.54877	1222.50403	-199.07568	554.61957	1231.90393	-87.07003	532.23077	1299.33362	-156.43976	353.18484	1496.53247	-178.61302	175.83229	1438.02625	-87.11230	180.10603	1542.98401	-106.35392	157.86295	1351.54382	-173.19241	74.06236	1384.45068	-129.38194	132.07321																																																																																																																															
2	0.008	1135.26550	-38.61201	1768.43042	1050.40991	-20.55590	1635.64795	1275.73706	-44.13507	1711.12585	1157.42175	-26.85507	1474.01648	1380.35107	-30.88734	1582.99353	1283.83923	85.52289	1502.15564	1280.96692	-158.19830	1490.80603	1331.34180	191.98532	1497.94263	1335.34302	-263.59906	1491.61218	1446.66858	66.09216	1494.56763	1453.38745	-124.08150	1490.35266	1476.88196	71.05561	1404.58289	1366.08032	229.18993	1359.64551	1423.25806	267.46698	1177.30493	1427.01038	170.46625	1165.18555	1323.50879	266.08185	1120.35913	1369.19519	269.02466	978.83630	1252.81384	264.59937	965.10114	1251.07739	308.81094	931.97797	1225.48059	258.61987	928.14514	1208.27844	225.54158	890.23926	1196.38086	215.05432	840.06506	1218.70874	309.40500	851.23254	1240.42065	244.19615	805.84625	1262.00281	201.67630	843.29779	1406.94580	-280.70117	1355.69055	1490.19202	-284.18808	1192.76746	1493.89722	-188.58453	1172.67944	1415.03247	-291.53027	1102.20081	1489.37048	-306.87927	1003.76178	1394.56506	-300.35172	940.37689	1429.55945	-338.19388	907.17316	1378.59155	-300.59109	882.21863	1358.20386	-275.69485	838.38458	1357.23877	-274.22769	787.85126	1413.05249	-345.76761	807.03326	1413.70703	-311.19867	749.44202	1413.16138	-252.68352	752.50977	1505.80164	-38.23332	1131.72449	1316.84583	155.75850	1064.31116	1313.10364	-196.76091	1080.00635	1346.74268	133.64815	684.50714	1280.52466	40.53685	584.58606	1329.59277	100.10176	525.51715	1339.67810	-10.86450	526.74664	1329.85559	50.27198	310.60278	1430.28430	72.01200	84.06813	1412.42786	-29.28472	107.31517	1491.49951	22.01603	49.60001	1258.78589	41.64368	39.33598	1319.47388	-0.08495	78.28486	1250.79358	-208.84303	703.08380	1216.80530	-196.96678	556.00586	1224.92908	-85.28966	533.90033	1286.46924	-154.90501	352.32422	1478.39087	-176.72624	168.98737	1420.42773	-85.97994	175.50322	1523.34045	-105.55580	149.80659	1330.82251	-172.31400	72.83908	1364.20789	-128.20900	128.18578																																																																																																																															
3	0.017	1129.53247	-36.87631	1768.76208	1044.89612	-20.41534	1635.76196	1270.36633	-42.52486	1710.61755	1152.69055	-26.27371	1473.73022	1374.52307	-30.18628	1584.24402	1277.92432	85.87126	1501.96814	1275.18298	-158.72838	1490.69495	1325.95020	192.44928	1499.05688	1327.51257	-260.83243	1492.11414	1441.83276	67.42680	1495.20752	1447.02490	-123.19141	1490.55884	1471.67615	71.91614	1405.20691	1358.88367	230.62520	1359.19067	1417.48560	267.83252	1176.93738	1419.12036	169.86496	1164.70618	1318.00476	264.79822	1120.47607	1364.04175	268.97015	977.94098	1244.92859	263.72855	965.05743	1243.58679	308.21716	932.55963	1217.88354	259.13245	928.09424	1199.05017	228.87939	889.56055	1186.46509	221.25372	838.94592	1213.03125	311.70688	852.50964	1229.61804	248.40077	805.83643	1254.39294	205.49846	842.34796	1401.82166	-282.59982	1355.20044	1485.39441	-283.50830	1193.46094	1490.42932	-188.12044	1173.28479	1409.92847	-290.37897	1102.14258	1484.23218	-305.90369	1004.61377	1390.45496	-298.51602	939.59326	1423.25793	-335.60696	907.47815	1375.22607	-298.11176	881.41241	1357.62000	-273.51181	835.61359	1353.89966	-273.46835	788.26813	1409.66724	-345.11514	806.39789	1410.64758	-309.96964	749.92474	1409.96350	-252.00226	752.91937	1499.69507	-36.86407	1132.14368	1311.00500	155.07603	1063.40308	1307.66956	-196.05707	1079.96741	1344.31042	133.51837	683.84424	1279.27368	41.37882	583.82538	1327.84485	100.79992	525.30707	1339.34509	-11.29746	526.10266	1329.46912	50.61844	310.06961	1430.28430	72.01200	84.06813	1413.68591	-29.47783	107.83218	1491.49951	22.01603	49.60001	1258.90771	41.75608	39.33194	1319.04626	0.21603	78.13137	1245.25977	-207.43382	703.18048	1209.88843	-195.69377	556.15601	1216.37000	-84.67127	535.30328	1273.30432	-153.72031	351.28345	1458.99548	-174.99434	161.97685	1400.10181	-84.53205	169.69884	1505.01086	-103.40794	141.34784	1308.41504	-169.80377	70.25814	1343.87549	-126.14804	125.34520																																																																																																																															
4	0.025	1124.07764	-36.03541	1768.38501	1038.74219	-19.08090	1635.47424	1264.02710	-42.31466	1710.60083	1147.10376	-26.90499	1473.26270	1369.79578	-29.68419	1583.66650	1273.21667	86.57460	1502.20911	1270.35071	-156.55325	1490.29919	1320.06555	193.18074	1497.36438	1322.41589	-261.30707	1492.23096	1436.65906	67.07966	1494.75623	1442.67273	-123.20905	1490.24780	1465.83154	72.18619	1404.91052	1354.27820	230.46228	1358.67310	1412.33545	266.88452	1176.65088	1414.20044	170.19394	1163.13745	1313.55859	265.60010	1119.96887	1358.58105	269.10321	978.19025	1238.60498	265.63660	963.83551	1238.19189	308.42529	932.83252	1212.63953	259.28067	928.05188	1190.35767	230.16451	888.40070	1177.78027	226.97063	838.90985	1204.58044	316.46359	854.91235	1220.56165	255.52931	803.57269	1245.67322	209.83728	840.90887	1397.26501	-281.62778	1354.24646	1479.60522	-282.84375	1193.00244	1484.90259	-187.91373	1173.16577	1406.70166	-290.12744	1102.69360	1481.06006	-305.01361	1004.78186	1385.35547	-296.41583	940.49292	1418.81213	-334.77979	906.27332	1370.27808	-297.74747	882.15314	1354.48181	-271.02927	836.10297	1350.01196	-270.96710	786.88031	1405.64233	-343.84824	805.72705	1407.32288	-309.49603	749.91998	1404.86414	-249.32150	752.92499	1495.67163	-37.39461	1131.91284	1306.61072	155.96330	1063.38806	1302.66553	-196.22112	1080.23340	1341.75867	133.94742	683.47968	1277.11340	42.15897	583.70374	1326.79297	101.06796	525.06641	1338.28357	-10.22104	526.02899	1329.25891	51.38687	310.00339	1430.28430	72.01200	84.06813	1413.86609	-29.65161	107.67727	1491.72339	22.26338	49.87660	1258.86841	42.09166	39.42009	1319.29077	-0.06560	78.16663	1238.22559	-208.62126	704.22736	1203.70300	-195.21498	556.50275	1210.66235	-82.88667	536.42365	1261.37451	-152.27061	350.36948	1440.11267	-174.14323	155.39014	1382.43542	-84.31673	164.62099	1484.87256	-101.99167	133.05814	1286.81445	-168.16661	69.08285	1324.57544	-125.43512	121.84022																																																																																																																															
